<?xml version="1.0" encoding="UTF-8"?>
<svg width="571px" height="575px" viewBox="0 0 571 575" version="1.1" xmlns="http://www.w3.org/2000/svg" xmlns:xlink="http://www.w3.org/1999/xlink">
    <!-- Generator: Sketch 45.2 (43514) - http://www.bohemiancoding.com/sketch -->
    <title>Group 18</title>
    <desc>Created with Sketch.</desc>
    <defs></defs>
    <g id="Page-1" stroke="none" stroke-width="1" fill="none" fill-rule="evenodd">
        <g id="Group-18" transform="translate(0.000000, 9.000000)" stroke-width="17">
            <g id="Group-17" transform="translate(0.000000, 69.000000)" stroke="#A7A3A3">
                <ellipse id="Oval-5" cx="106.382671" cy="71.8221416" rx="71.9422383" ry="71.8221416"></ellipse>
                <path d="M48.2898964,186.527223 C48.2191404,186.584117 48.1340924,186.661148 48.0405465,186.758646 C47.4779507,187.345009 47.023511,188.245111 46.8622992,189.184231 L8.6049109,412.048109 C9.09161678,412.300435 9.89651267,412.5 10.9504023,412.5 L201.049598,412.5 C202.103487,412.5 202.908383,412.300435 203.395089,412.048109 L165.137701,189.184231 C164.976489,188.245111 164.522049,187.345009 163.959454,186.758646 C163.865908,186.661148 163.78086,186.584117 163.710104,186.527223 L48.2898964,186.527223 Z" id="Rectangle-13"></path>
            </g>
            <g id="Group-17-Copy" transform="translate(359.000000, 69.000000)" stroke="#A7A3A3">
                <ellipse id="Oval-5" cx="106.382671" cy="71.8221416" rx="71.9422383" ry="71.8221416"></ellipse>
                <path d="M48.2898964,186.527223 C48.2191404,186.584117 48.1340924,186.661148 48.0405465,186.758646 C47.4779507,187.345009 47.023511,188.245111 46.8622992,189.184231 L8.6049109,412.048109 C9.09161678,412.300435 9.89651267,412.5 10.9504023,412.5 L201.049598,412.5 C202.103487,412.5 202.908383,412.300435 203.395089,412.048109 L165.137701,189.184231 C164.976489,188.245111 164.522049,187.345009 163.959454,186.758646 C163.865908,186.661148 163.78086,186.584117 163.710104,186.527223 L48.2898964,186.527223 Z" id="Rectangle-13" transform="translate(106.000000, 299.513612) scale(1, -1) translate(-106.000000, -299.513612) "></path>
            </g>
            <path d="M285.5,0.38225058 L285.5,557.5" id="Line-6" stroke="#979797" stroke-linecap="round"></path>
        </g>
    </g>
</svg>